<?xml version="1.0" encoding="utf-8"?>
<!-- Generator: Adobe Illustrator 16.0.4, SVG Export Plug-In . SVG Version: 6.00 Build 0)  -->
<!DOCTYPE svg PUBLIC "-//W3C//DTD SVG 1.1//EN" "http://www.w3.org/Graphics/SVG/1.1/DTD/svg11.dtd">
<svg version="1.1" id="Capa_1" xmlns="http://www.w3.org/2000/svg" xmlns:xlink="http://www.w3.org/1999/xlink" x="0px" y="0px"
	 width="512px" height="512px" viewBox="0 0 512 512" enable-background="new 0 0 512 512" xml:space="preserve">
<path d="M64,448h448v64H0V0h64V448z M144,416c-26.51,0-48-21.49-48-48s21.49-48,48-48c1.414,0,2.811,0.074,4.194,0.193L199.79,234.2
	c-4.92-7.535-7.79-16.531-7.79-26.201c0-26.51,21.49-48,48-48s48,21.49,48,48c0,9.671-2.87,18.666-7.79,26.201l51.596,85.993
	c1.384-0.119,2.78-0.193,4.194-0.193c1.068,0,2.124,0.047,3.175,0.115l85.178-149.061c-5.268-7.704-8.353-17.018-8.353-27.055
	c0-26.51,21.49-48,48-48s48,21.49,48,48s-21.49,48-48,48c-1.07,0-2.124-0.047-3.175-0.116l-85.178,149.062
	C380.915,348.648,384,357.963,384,368c0,26.51-21.49,48-48,48s-48-21.49-48-48c0-9.67,2.87-18.666,7.789-26.201l-51.595-85.992
	c-1.383,0.119-2.78,0.193-4.194,0.193s-2.811-0.073-4.194-0.193L184.21,341.8c4.92,7.534,7.79,16.53,7.79,26.2
	C192,394.51,170.51,416,144,416z"/>
</svg>
