<?xml version="1.0" encoding="utf-8"?>
<!-- Generator: Adobe Illustrator 16.0.0, SVG Export Plug-In . SVG Version: 6.00 Build 0)  -->
<!DOCTYPE svg PUBLIC "-//W3C//DTD SVG 1.1//EN" "http://www.w3.org/Graphics/SVG/1.1/DTD/svg11.dtd">
<svg version="1.1" id="Artwork" xmlns="http://www.w3.org/2000/svg" xmlns:xlink="http://www.w3.org/1999/xlink" x="0px" y="0px"
	 width="512px" height="512px" viewBox="0 0 512 512" enable-background="new 0 0 512 512" xml:space="preserve">
<g>
	<path d="M145.656,174.369h106.181c14.656,0,26.538-12.097,26.538-26.758c0-14.661-11.882-26.752-26.538-26.752H145.656
		c-14.655,0-26.548,12.092-26.548,26.752C119.107,162.271,131,174.369,145.656,174.369z"/>
	<path d="M145.656,291.066h222.961c14.666,0,26.549-12.097,26.549-26.758c0-14.661-11.883-26.753-26.549-26.753H145.656
		c-14.655,0-26.548,12.092-26.548,26.753C119.107,278.969,131,291.066,145.656,291.066z"/>
	<path d="M379.238,343.999H145.656c-14.655,0-26.548,11.809-26.548,26.469c0,14.661,11.893,26.475,26.548,26.475h233.583
		c14.656,0,26.549-11.814,26.549-26.475C405.787,355.808,393.895,343.999,379.238,343.999z"/>
	<path d="M373.576,11H104.357C71.506,11,45,37.627,45,70.467v369.275c0,32.846,26.506,59.657,59.357,59.657h316.18
		c32.851,0,59.357-26.811,59.357-59.657V119.929L373.576,11z M420.537,456.709h-316.18c-9.424,0-17.241-7.537-17.241-16.966V70.467
		c0-9.428,7.817-17.351,17.241-17.351h248.597v47.802c0,21.016,17.029,38.115,38.04,38.33l46.783,0.478v300.017
		C437.777,449.172,429.961,456.709,420.537,456.709z"/>
</g>
</svg>
